<svg xmlns="http://www.w3.org/2000/svg" version="1.1" xmlns:xlink="http://www.w3.org/1999/xlink" xmlns:svgjs="http://svgjs.dev/svgjs" width="1440" height="560" preserveAspectRatio="none" viewBox="0 0 1440 560">
    <g mask="url(&quot;#SvgjsMask1968&quot;)" fill="none">
        <rect width="1440" height="560" x="0" y="0" fill="url(&quot;#SvgjsLinearGradient1969&quot;)"></rect>
        <path d="M0 0L242.6 0L0 218.17z" fill="rgba(255, 255, 255, .1)"></path>
        <path d="M0 218.17L242.6 0L807.01 0L0 368.48z" fill="rgba(255, 255, 255, .075)"></path>
        <path d="M0 368.48L807.01 0L1051.6 0L0 435.05z" fill="rgba(255, 255, 255, .05)"></path>
        <path d="M0 435.05L1051.6 0L1179.86 0L0 479.42z" fill="rgba(255, 255, 255, .025)"></path>
        <path d="M1440 560L1389.02 560L1440 470.65999999999997z" fill="rgba(0, 0, 0, .1)"></path>
        <path d="M1440 470.65999999999997L1389.02 560L1004.4 560L1440 445.86999999999995z" fill="rgba(0, 0, 0, .075)"></path>
        <path d="M1440 445.87L1004.4 560L778.46 560L1440 341.83z" fill="rgba(0, 0, 0, .05)"></path>
        <path d="M1440 341.83L778.46 560L735.3100000000001 560L1440 273.78z" fill="rgba(0, 0, 0, .025)"></path>
    </g>
    <defs>
        <mask id="SvgjsMask1968">
            <rect width="1440" height="560" fill="#ffffff"></rect>
        </mask>
        <linearGradient x1="50%" y1="0%" x2="50%" y2="100%" gradientUnits="userSpaceOnUse" id="SvgjsLinearGradient1969">
            <stop stop-color="rgba(217, 21, 154, 1)" offset="0"></stop>
            <stop stop-color="rgba(17, 24, 39, 1)" offset="0"></stop>
        </linearGradient>
    </defs>
</svg>